<?xml version="1.0" standalone="no"?>
<!DOCTYPE svg PUBLIC "-//W3C//DTD SVG 20010904//EN"
 "http://www.w3.org/TR/2001/REC-SVG-20010904/DTD/svg10.dtd">
<svg version="1.0" xmlns="http://www.w3.org/2000/svg"
 width="1080.000000pt" height="1080.000000pt" viewBox="0 0 1080.000000 1080.000000"
 preserveAspectRatio="xMidYMid meet">
<metadata>
Created by potrace 1.14, written by Peter Selinger 2001-2017
</metadata>
<g transform="translate(0.000000,1080.000000) scale(0.100000,-0.100000)"
fill="#000000" stroke="none">
<path d="M4990 10395 l-405 -405 -141 -29 c-152 -31 -375 -92 -518 -141 -50
-16 -92 -30 -95 -30 -3 0 210 216 474 480 264 264 474 480 466 480 -23 0 -205
-29 -441 -71 l-225 -39 -755 -759 c-574 -576 -791 -787 -905 -881 -188 -154
-508 -473 -651 -650 -80 -99 -310 -335 -872 -895 l-762 -760 -35 -155 c-38
-172 -61 -310 -73 -443 l-8 -88 483 483 483 483 -44 -133 c-49 -147 -115 -396
-142 -537 l-16 -90 -406 -407 -406 -407 13 -228 c6 -125 15 -245 18 -267 l6
-38 352 352 352 352 6 -269 6 -268 -324 -325 -324 -325 34 -163 c38 -181 64
-282 74 -282 3 0 142 136 307 301 l302 302 12 -59 c13 -66 85 -361 94 -384 4
-10 -85 -106 -283 -304 l-289 -289 18 -52 c19 -55 115 -286 132 -319 9 -16 44
15 288 259 152 152 280 273 283 269 2 -5 17 -38 32 -74 15 -36 52 -118 83
-183 l56 -118 -271 -272 -271 -272 83 -137 c45 -76 95 -154 110 -174 l28 -36
261 261 c144 144 264 261 268 261 3 0 18 -20 32 -43 14 -24 61 -94 105 -156
45 -62 81 -116 81 -119 0 -4 -115 -122 -255 -262 -140 -140 -255 -259 -255
-263 0 -7 183 -227 247 -297 11 -12 49 24 264 243 139 142 257 257 263 255 6
-2 69 -63 141 -136 l129 -132 -259 -261 -260 -260 99 -95 c55 -53 119 -112
143 -131 l44 -37 264 264 c262 262 264 263 287 247 13 -9 81 -60 151 -112 71
-52 136 -99 145 -104 14 -9 -27 -54 -247 -275 l-264 -264 84 -53 c46 -30 122
-79 169 -111 l85 -58 270 270 270 270 135 -68 c74 -38 160 -78 190 -90 l54
-23 -274 -274 c-151 -151 -272 -276 -270 -278 9 -8 359 -167 367 -167 5 0 136
128 291 283 l284 284 108 -32 c59 -18 160 -45 224 -61 l117 -28 -298 -298
c-163 -163 -295 -299 -293 -301 9 -7 293 -87 360 -101 l65 -13 322 320 c298
297 323 319 350 314 15 -3 137 -12 271 -19 l243 -12 -346 -346 -346 -346 263
-22 263 -23 390 394 390 394 136 22 c118 18 484 104 544 126 11 4 -185 -198
-435 -449 l-455 -457 70 6 c124 11 367 44 469 64 l98 18 632 630 c591 590 637
632 721 681 50 29 151 95 225 147 534 374 968 832 1311 1382 l79 128 621 621
621 621 19 104 c20 106 53 352 63 469 l6 65 -456 -455 c-251 -250 -453 -446
-449 -435 23 65 97 384 121 520 l28 160 394 397 395 397 -11 168 c-6 92 -17
208 -23 256 l-12 89 -347 -347 -348 -348 -6 94 c-3 52 -10 174 -17 273 l-11
179 319 321 320 321 -9 40 c-17 72 -100 370 -105 379 -3 4 -140 -126 -304
-290 -193 -193 -300 -293 -303 -283 -2 7 -14 57 -26 109 -13 52 -38 146 -57
209 l-34 115 287 287 288 288 -78 173 c-42 96 -81 180 -86 188 -7 12 -71 -46
-285 -260 -220 -219 -277 -272 -285 -260 -5 8 -10 19 -10 24 0 5 -37 83 -81
174 l-82 164 272 272 271 271 -101 155 c-55 85 -105 159 -110 165 -6 6 -107
-88 -275 -255 -206 -206 -267 -262 -274 -250 -17 30 -158 226 -198 275 l-40
50 265 266 265 267 -83 92 c-46 51 -105 115 -131 144 l-47 51 -258 -257 c-142
-142 -260 -258 -263 -258 -3 0 -67 60 -142 133 l-138 132 260 260 259 260
-151 128 -151 129 -263 -263 -262 -262 -39 30 c-21 17 -95 68 -165 115 l-127
84 264 264 c145 145 262 267 259 271 -5 9 -189 120 -281 170 l-63 34 -268
-268 -269 -269 -89 45 c-49 24 -134 64 -189 88 -55 23 -102 44 -105 46 -2 2
121 129 275 283 l278 278 -69 32 c-61 27 -264 110 -304 123 -10 3 -116 -95
-305 -284 l-290 -289 -90 25 c-49 14 -142 36 -205 50 -63 14 -126 28 -139 31
-22 5 6 36 277 307 166 166 302 305 302 308 0 15 -329 96 -409 100 l-42 3
-322 -322 -322 -322 -268 7 -269 6 352 352 353 353 -59 6 c-76 8 -375 26 -434
26 l-45 0 -405 -405z m864 -1239 c65 -9 120 -17 122 -19 2 -1 -613 -619 -1366
-1372 -754 -754 -1370 -1373 -1370 -1377 0 -7 149 -281 177 -327 15 -24 19
-20 505 465 449 449 492 495 530 567 40 74 43 77 77 77 34 0 82 46 972 936
l935 935 160 -54 c154 -53 244 -86 254 -94 2 -2 -383 -391 -855 -863 l-860
-860 148 0 c99 0 147 -4 147 -11 0 -10 -135 -270 -227 -436 -19 -35 -31 -63
-26 -63 4 0 468 460 1030 1023 l1024 1022 52 -29 c76 -41 287 -177 287 -185 0
-3 -296 -302 -657 -663 l-658 -658 280 0 280 0 537 537 537 537 87 -80 c48
-44 110 -106 138 -138 l50 -57 -399 -399 -398 -398 54 -6 c30 -3 97 -8 149
-11 52 -3 138 -14 190 -25 l95 -18 281 280 281 280 71 -98 c38 -55 91 -134
118 -177 l48 -78 -190 -190 c-162 -163 -186 -191 -172 -200 47 -27 170 -133
218 -188 l54 -62 136 136 c74 74 138 135 141 135 8 0 124 -292 141 -354 l12
-46 -122 -123 -123 -123 15 -70 c23 -101 36 -225 36 -334 l0 -95 154 154 c151
150 154 153 160 125 15 -71 36 -230 47 -346 l12 -128 -1052 -1059 c-578 -582
-1474 -1478 -1991 -1991 l-941 -933 -106 7 c-107 6 -383 43 -392 52 -3 3 413
423 924 934 l930 930 -275 0 -275 0 -877 -877 -876 -876 -79 27 c-43 16 -133
51 -201 78 l-123 51 960 962 961 961 0 275 0 274 -1082 -1080 c-596 -594
-1111 -1107 -1145 -1139 l-62 -59 -63 37 c-96 58 -279 188 -276 197 2 5 594
600 1316 1322 l1312 1314 0 274 0 274 -810 -810 -810 -810 -2 -195 -3 -195
-195 -3 -195 -2 -461 -461 -460 -460 -132 135 c-73 74 -132 139 -132 143 0 5
142 150 315 323 l315 315 0 280 0 280 -440 -440 -441 -440 -19 25 c-18 22
-122 187 -178 280 l-21 36 550 549 c302 303 548 555 547 562 -6 26 -184 353
-192 353 -5 0 -253 -243 -550 -540 l-542 -540 -44 118 c-24 64 -56 157 -72
207 l-28 90 520 520 521 521 -82 155 c-45 84 -88 165 -96 178 -15 23 -19 20
-488 -449 l-473 -473 -11 84 c-16 115 -31 301 -31 378 l0 64 396 399 395 398
-19 33 c-11 17 -49 88 -85 157 -36 69 -73 134 -81 145 -14 19 -27 8 -296 -260
-197 -196 -280 -272 -276 -255 3 14 15 77 26 140 24 131 75 333 120 474 31 95
33 99 125 195 l94 98 -79 149 -79 149 231 3 231 2 901 898 901 897 135 42
c197 62 508 133 579 133 21 0 -155 -181 -988 -1014 l-1013 -1014 93 -171 c52
-94 96 -171 99 -170 3 0 550 542 1215 1205 l1210 1205 140 -5 c77 -3 193 -12
259 -20z m3296 -4234 c-15 -123 -63 -366 -96 -492 l-27 -98 -1281 -1281 -1282
-1282 -139 -35 c-154 -38 -379 -79 -495 -89 l-75 -7 1700 1701 c935 936 1702
1696 1704 1690 2 -6 -2 -54 -9 -107z m-692 -1738 c-213 -296 -493 -579 -803
-812 -91 -68 -57 -31 365 392 256 256 466 466 468 466 2 0 -12 -21 -30 -46z"/>
<path d="M5138 6053 l-617 -618 -191 -359 -191 -359 3 -109 3 -108 808 808
807 807 -2 278 -3 277 -617 -617z"/>
<path d="M6710 6188 l0 -223 220 220 c121 121 220 221 220 222 0 2 -99 3 -220
3 l-220 0 0 -222z"/>
<path d="M7187 5852 c-433 -433 -477 -480 -477 -510 l0 -32 243 0 242 0 348
348 348 348 -23 69 c-26 82 -93 175 -159 222 l-45 32 -477 -477z"/>
<path d="M3683 5718 c-48 -49 -51 -55 -38 -72 8 -11 16 -18 18 -15 9 11 78
139 75 139 -2 0 -27 -24 -55 -52z"/>
<path d="M7220 4553 l-226 -3 -142 -143 -142 -143 2 -272 3 -272 420 420 420
420 -55 -2 c-30 -2 -156 -4 -280 -5z"/>
<path d="M3125 10295 c-512 -236 -1007 -569 -1410 -948 -397 -374 -668 -711
-949 -1177 -91 -151 -321 -602 -315 -617 2 -4 634 623 1404 1394 770 772 1398
1403 1395 1403 -3 0 -59 -25 -125 -55z"/>
<path d="M8860 1933 c-877 -879 -1588 -1594 -1580 -1591 377 149 632 270 885
421 773 462 1402 1088 1855 1847 145 243 324 611 414 853 14 37 24 67 23 67
-1 -1 -720 -719 -1597 -1597z"/>
</g>
</svg>
