<?xml version="1.0" standalone="no"?>
<!DOCTYPE svg PUBLIC "-//W3C//DTD SVG 20010904//EN"
 "http://www.w3.org/TR/2001/REC-SVG-20010904/DTD/svg10.dtd">
<svg version="1.0" xmlns="http://www.w3.org/2000/svg"
 width="512.000000pt" height="512.000000pt" viewBox="0 0 512.000000 512.000000"
 preserveAspectRatio="xMidYMid meet">
<metadata>
Created by potrace 1.14, written by Peter Selinger 2001-2017
</metadata>
<g transform="translate(0.000000,512.000000) scale(0.100000,-0.100000)"
fill="#000000" stroke="none">
<path d="M1170 4875 c-293 -47 -576 -227 -747 -476 -85 -124 -155 -303 -178
-459 -22 -141 -22 -2619 0 -2760 42 -277 187 -528 407 -704 146 -117 336 -201
523 -231 133 -22 2623 -22 2765 0 302 45 583 223 757 476 85 124 155 303 178
459 22 141 22 2619 0 2760 -42 277 -187 528 -407 704 -148 119 -340 203 -528
231 -135 21 -2640 20 -2770 0z m1330 -985 l0 -300 -70 0 -70 0 0 300 0 300 70
0 70 0 0 -300z m773 3 l-3 -298 -65 -3 c-61 -3 -65 -1 -65 18 l0 22 -34 -22
c-70 -43 -184 -35 -246 16 -115 97 -95 336 33 395 57 25 146 25 197 -1 22 -11
42 -20 46 -20 3 0 5 43 2 95 l-4 95 71 0 70 0 -2 -297z m-1580 119 c74 -39
102 -95 102 -197 0 -69 -4 -86 -28 -127 -72 -124 -269 -146 -372 -43 -96 96
-83 285 25 360 73 50 187 53 273 7z m438 27 c40 -9 62 -21 95 -54 44 -45 60
-84 66 -165 l3 -45 -162 -3 c-149 -2 -162 -4 -156 -20 10 -28 43 -60 70 -67
33 -8 89 11 108 38 14 20 17 20 67 8 70 -18 70 -18 53 -51 -34 -66 -121 -105
-218 -98 -116 8 -185 66 -207 174 -29 137 39 254 165 285 44 10 59 10 116 -2z
m1489 0 c94 -20 152 -95 166 -212 l7 -57 -162 0 c-175 0 -181 -2 -141 -52 35
-46 106 -44 157 4 21 20 25 20 74 7 29 -8 54 -19 56 -26 7 -21 -79 -100 -122
-112 -73 -20 -147 -14 -206 17 -43 23 -59 38 -82 82 -26 50 -28 63 -25 136 2
68 7 87 30 122 33 50 64 71 126 88 60 16 61 16 122 3z m-2660 -20 c0 -14 80
-222 90 -232 4 -4 29 48 55 118 l49 125 74 0 c55 0 73 -3 69 -12 -97 -230
-215 -489 -231 -507 -31 -34 -77 -51 -143 -51 -79 0 -87 7 -78 67 l6 49 46 0
c38 -1 49 3 66 26 l20 26 -87 196 c-47 107 -86 198 -86 201 0 3 34 5 75 5 47
0 75 -4 75 -11z m3038 -72 c12 -45 33 -116 46 -157 l23 -75 18 60 c10 33 30
103 45 155 l28 95 76 3 c42 2 76 2 76 0 0 -2 -38 -100 -84 -218 l-84 -215 -74
-3 -74 -3 -71 183 c-40 101 -79 200 -87 221 l-16 37 77 0 78 0 23 -83z m-1273
-282 l0 -70 -70 0 -70 0 -3 59 c-4 86 -3 87 75 84 l68 -3 0 -70z m539 -2041
c7 -20 123 -17 119 4 -2 8 12 12 47 12 38 0 50 -4 50 -15 0 -12 16 -15 80 -15
l80 0 0 -33 0 -34 -74 5 c-48 3 -76 1 -80 -7 -9 -14 -106 -15 -106 -1 0 16
-108 12 -117 -4 -4 -7 -15 -16 -23 -19 -8 -3 4 -6 28 -6 38 -1 42 -3 42 -25 0
-22 -5 -25 -42 -29 -41 -3 -41 -4 10 -5 48 -2 52 -4 52 -27 0 -18 -5 -25 -20
-25 -11 0 -20 -6 -20 -14 0 -16 55 -15 72 2 6 6 17 8 24 5 8 -3 14 0 14 6 0 6
-11 11 -25 11 -22 0 -25 4 -25 35 0 32 2 35 30 35 23 0 30 4 30 20 0 16 7 20
36 20 27 0 37 -5 41 -20 4 -16 14 -20 49 -20 l44 0 1 -67 c1 -68 16 -146 18
-95 1 21 2 22 25 7 20 -14 23 -21 16 -48 -13 -54 -21 -67 -47 -73 -16 -4 -30
0 -43 11 -19 18 -20 17 -20 -6 l0 -24 -205 0 c-192 0 -205 1 -205 18 0 16 -7
18 -42 15 -40 -3 -43 -1 -46 25 -3 26 -1 27 40 28 88 1 101 28 15 31 -36 2
-46 7 -55 28 -8 16 -9 26 -2 28 5 2 20 12 32 22 l23 19 -27 1 c-23 0 -28 4
-28 25 0 24 3 25 58 27 49 1 51 2 15 5 -38 4 -43 7 -43 29 0 21 4 24 40 24 22
0 40 5 40 10 0 6 7 10 16 10 9 0 12 5 8 11 -4 8 -30 10 -75 7 l-69 -5 0 33 0
34 75 0 c60 0 75 3 75 15 0 22 86 21 94 -1z m646 -34 l0 -50 42 21 c23 12 55
35 70 51 26 28 32 30 74 23 34 -5 44 -10 40 -21 -4 -11 7 -14 59 -14 59 0 65
-2 85 -30 28 -39 21 -58 -41 -114 -55 -49 -131 -90 -206 -111 l-48 -13 89 -1
88 -1 -4 25 c-5 24 -3 25 43 25 46 0 49 -2 49 -25 0 -20 5 -25 25 -25 23 0 25
-4 25 -45 0 -41 -2 -45 -25 -45 -25 0 -25 -1 -25 -85 0 -111 -12 -125 -105
-125 -50 0 -65 3 -65 14 0 8 -5 27 -10 41 -9 23 -13 25 -25 15 -18 -15 -14
-18 -59 47 l-35 51 32 21 32 21 -42 0 -43 0 0 45 c0 34 4 45 15 45 13 0 12 6
-5 39 l-20 39 40 7 c22 4 40 9 40 13 0 9 -33 42 -42 42 -6 0 -18 10 -29 23
-18 22 -18 18 -19 -225 l0 -248 -45 0 -45 0 0 120 c0 100 -2 120 -15 120 -11
0 -15 -13 -15 -55 0 -66 -16 -146 -35 -171 -13 -18 -15 -18 -46 13 l-32 31 17
41 c21 54 22 141 1 141 -11 0 -15 12 -15 45 l0 45 70 0 c68 0 70 1 70 25 0 24
-3 25 -60 25 l-60 0 0 105 0 105 40 0 39 0 3 -62 c2 -50 6 -63 21 -66 15 -3
17 6 17 77 l0 81 45 0 45 0 0 -50z m-1385 -15 c-6 -52 -5 -55 15 -55 12 0 36
12 53 26 l31 26 23 -28 23 -29 0 58 0 57 45 0 45 0 0 -162 c-1 -271 -29 -380
-111 -435 -22 -14 -41 -24 -42 -22 -2 2 -15 20 -30 39 l-26 35 41 34 c57 48
95 141 43 107 -32 -21 -32 -22 -40 22 l-8 37 -14 -34 c-13 -31 -13 -35 6 -55
26 -28 26 -34 -4 -70 -20 -25 -26 -28 -39 -17 -14 12 -23 6 -67 -38 l-51 -52
-29 40 -29 41 46 46 47 46 -42 37 -41 36 20 70 c26 91 26 98 -5 93 -24 -5 -25
-3 -25 43 l0 49 34 0 c34 0 35 0 41 55 l7 55 45 0 45 0 -7 -55z m356 -7 l1
-63 17 36 16 36 34 -27 33 -28 -18 -33 c-34 -68 -55 -91 -70 -78 -11 9 -14 8
-14 -8 0 -10 23 -41 50 -68 28 -27 50 -54 50 -59 0 -5 -12 -23 -27 -38 l-27
-28 -23 27 -22 28 -1 -77 c0 -63 3 -78 15 -78 11 0 15 12 15 44 l0 44 40 -15
c28 -11 39 -21 35 -31 -3 -7 -5 -31 -5 -53 0 -60 -25 -79 -104 -79 -40 0 -68
5 -74 13 -7 8 -12 115 -14 305 l-3 292 48 0 47 0 1 -62z m749 -428 c0 -29 -2
-30 -42 -30 l-41 0 21 -23 c12 -13 22 -26 22 -29 0 -3 -15 -15 -34 -26 -29
-17 -36 -18 -48 -5 -13 12 -42 12 -211 2 -108 -6 -203 -9 -211 -6 -7 3 -16 19
-18 36 l-5 31 58 0 c32 0 61 5 64 10 4 6 -23 10 -74 10 l-81 0 0 30 0 30 300
0 300 0 0 -30z"/>
<path d="M2980 3923 c-25 -13 -39 -29 -49 -58 -42 -121 69 -224 158 -149 105
88 10 267 -109 207z"/>
<path d="M1507 3919 c-53 -41 -58 -143 -10 -200 20 -24 32 -29 68 -29 36 0 48
5 70 32 25 29 27 38 23 101 -3 61 -7 72 -31 93 -35 30 -85 31 -120 3z"/>
<path d="M2006 3919 c-49 -38 -35 -49 64 -49 56 0 90 4 90 10 0 6 -11 22 -25
35 -31 32 -91 34 -129 4z"/>
<path d="M3495 3915 c-14 -13 -25 -29 -25 -35 0 -6 34 -10 90 -10 99 0 113 11
64 49 -38 30 -98 28 -129 -4z"/>
<path d="M3476 1388 c-9 -37 -7 -47 14 -58 19 -10 20 -8 20 35 0 49 -23 64
-34 23z"/>
<path d="M3142 1375 c-15 -32 -15 -35 -2 -35 6 0 10 9 10 20 0 16 7 20 34 20
28 0 35 -4 39 -22 3 -17 5 -14 6 10 1 31 0 32 -37 32 -32 0 -41 -5 -50 -25z"/>
<path d="M3313 1323 c-13 -2 -23 -9 -23 -14 0 -5 -16 -9 -35 -9 -19 0 -35 -5
-35 -10 0 -6 15 -8 40 -4 36 6 40 5 40 -15 0 -13 -9 -25 -22 -31 -19 -7 -13
-9 26 -9 48 -1 49 -1 31 19 -17 19 -17 20 9 41 43 34 33 44 -31 32z"/>
<path d="M3500 1280 c-17 -34 -16 -33 -38 -19 -17 10 -23 10 -36 0 -9 -8 -16
-17 -16 -22 0 -11 107 -12 114 -1 3 5 2 22 -3 38 l-8 29 -13 -25z"/>
<path d="M4140 1505 c9 -11 17 -12 31 -4 27 14 24 19 -12 19 -27 0 -30 -2 -19
-15z"/>
<path d="M4030 1503 c1 -13 38 -53 49 -53 18 0 13 15 -12 38 -24 23 -37 28
-37 15z"/>
<path d="M4065 1194 c27 -35 33 -50 25 -59 -14 -17 20 -30 50 -20 17 5 20 15
20 66 l0 59 -65 0 -65 0 35 -46z"/>
<path d="M2607 1430 c-3 -8 -8 -39 -12 -68 -6 -58 -7 -58 48 -20 33 24 40 76
8 58 -16 -8 -21 -6 -29 18 -7 19 -11 23 -15 12z"/>
<path d="M2495 1418 c-18 -61 -26 -121 -17 -130 14 -14 31 28 39 95 4 32 2 47
-6 47 -6 0 -13 -6 -16 -12z"/>
<path d="M3285 1100 c-4 -6 23 -10 74 -10 47 0 81 4 81 10 0 6 -31 10 -74 10
-41 0 -78 -4 -81 -10z"/>
</g>
</svg>
